<svg width="100" height="124" viewBox="0 0 100 124" fill="none" style="display: block; overflow: visible;"><defs><radialGradient id="rad-pal-original" cx="50%" cy="50%" r="50%"><stop offset="0%" stop-color="#1B8FCC" stop-opacity="0.07"></stop><stop offset="100%" stop-color="#1B8FCC" stop-opacity="0"></stop></radialGradient><filter id="glow-pal-original" x="-40%" y="-40%" width="180%" height="180%"><feGaussianBlur stdDeviation="2.5" result="blur"></feGaussianBlur><feMerge><feMergeNode in="blur"></feMergeNode><feMergeNode in="SourceGraphic"></feMergeNode></feMerge></filter></defs><circle cx="50" cy="40" r="40" fill="url(#rad-pal-original)"></circle><path d="M50,10 Q70,10 76,25" stroke="rgba(12,31,74,0.08)" stroke-width="1.3" fill="none" stroke-linecap="round"></path><path d="M76,25 Q84,40 76,55" stroke="rgba(12,31,74,0.08)" stroke-width="1.3" fill="none" stroke-linecap="round"></path><path d="M76,55 Q70,73 50,70" stroke="rgba(12,31,74,0.08)" stroke-width="1.3" fill="none" stroke-linecap="round"></path><path d="M50,70 Q30,73 24,55" stroke="rgba(12,31,74,0.08)" stroke-width="1.3" fill="none" stroke-linecap="round"></path><path d="M24,55 Q16,40 24,25" stroke="rgba(12,31,74,0.08)" stroke-width="1.3" fill="none" stroke-linecap="round"></path><path d="M24,25 Q30,10 50,10" stroke="rgba(12,31,74,0.08)" stroke-width="1.3" fill="none" stroke-linecap="round"></path><path d="M50,10 Q72,28 76,55" stroke="rgba(12,31,74,0.08)" stroke-width="1.105" fill="none" stroke-linecap="round"></path><path d="M50,10 Q28,28 24,55" stroke="rgba(12,31,74,0.08)" stroke-width="1.105" fill="none" stroke-linecap="round"></path><path d="M76,25 Q70,62 50,70" stroke="rgba(12,31,74,0.08)" stroke-width="1.105" fill="none" stroke-linecap="round"></path><path d="M76,25 Q52,16 24,25" stroke="rgba(12,31,74,0.08)" stroke-width="1.105" fill="none" stroke-linecap="round"></path><path d="M76,55 Q52,64 24,55" stroke="rgba(12,31,74,0.08)" stroke-width="1.105" fill="none" stroke-linecap="round"></path><path d="M50,70 Q30,62 24,25" stroke="rgba(12,31,74,0.08)" stroke-width="1.105" fill="none" stroke-linecap="round"></path><path d="M50,40 Q52,19 50,10" stroke="#1B8FCC" stroke-width="1.5" fill="none" stroke-linecap="round" opacity="0.45"></path><path d="M50,40 Q69,30.5 76,25" stroke="#19B4B4" stroke-width="1.5" fill="none" stroke-linecap="round" opacity="0.45"></path><path d="M50,40 Q69,49.5 76,55" stroke="#E8A030" stroke-width="1.5" fill="none" stroke-linecap="round" opacity="0.45"></path><path d="M50,40 Q52,61 50,70" stroke="#E85A5A" stroke-width="1.5" fill="none" stroke-linecap="round" opacity="0.45"></path><path d="M50,40 Q31,49.5 24,55" stroke="#7B5EA7" stroke-width="1.5" fill="none" stroke-linecap="round" opacity="0.45"></path><path d="M50,40 Q31,30.5 24,25" stroke="#27AE83" stroke-width="1.5" fill="none" stroke-linecap="round" opacity="0.45"></path><path d="M50,10 Q70,10 76,25" stroke="#1B8FCC" stroke-width="1.1700000000000002" fill="none" stroke-linecap="round" opacity="0.3"></path><path d="M76,25 Q84,40 76,55" stroke="#19B4B4" stroke-width="1.1700000000000002" fill="none" stroke-linecap="round" opacity="0.3"></path><path d="M76,55 Q70,73 50,70" stroke="#E8A030" stroke-width="1.1700000000000002" fill="none" stroke-linecap="round" opacity="0.3"></path><path d="M50,70 Q30,73 24,55" stroke="#E85A5A" stroke-width="1.1700000000000002" fill="none" stroke-linecap="round" opacity="0.3"></path><path d="M24,55 Q16,40 24,25" stroke="#7B5EA7" stroke-width="1.1700000000000002" fill="none" stroke-linecap="round" opacity="0.3"></path><path d="M24,25 Q30,10 50,10" stroke="#27AE83" stroke-width="1.1700000000000002" fill="none" stroke-linecap="round" opacity="0.3"></path><circle cx="50" cy="10" r="9" fill="#1B8FCC" opacity="0.12"></circle><circle cx="76" cy="25" r="8.5" fill="#19B4B4" opacity="0.12"></circle><circle cx="76" cy="55" r="8.5" fill="#E8A030" opacity="0.12"></circle><circle cx="50" cy="70" r="8" fill="#E85A5A" opacity="0.12"></circle><circle cx="24" cy="55" r="8" fill="#7B5EA7" opacity="0.12"></circle><circle cx="24" cy="25" r="8.5" fill="#27AE83" opacity="0.12"></circle><g><circle cx="50" cy="10" r="5.5" fill="#1B8FCC"></circle><circle cx="48.46" cy="8.46" r="1.76" fill="white" opacity="0.45"></circle></g><g><circle cx="76" cy="25" r="5" fill="#19B4B4"></circle><circle cx="74.6" cy="23.6" r="1.6" fill="white" opacity="0.45"></circle></g><g><circle cx="76" cy="55" r="5" fill="#E8A030"></circle><circle cx="74.6" cy="53.6" r="1.6" fill="white" opacity="0.45"></circle></g><g><circle cx="50" cy="70" r="4.5" fill="#E85A5A"></circle><circle cx="48.74" cy="68.74" r="1.44" fill="white" opacity="0.45"></circle></g><g><circle cx="24" cy="55" r="4.5" fill="#7B5EA7"></circle><circle cx="22.74" cy="53.74" r="1.44" fill="white" opacity="0.45"></circle></g><g><circle cx="24" cy="25" r="5" fill="#27AE83"></circle><circle cx="22.6" cy="23.6" r="1.6" fill="white" opacity="0.45"></circle></g><circle cx="50" cy="40" r="13.5" fill="#0C1F4A" opacity="0.08"></circle><circle cx="50" cy="40" r="11.5" fill="#0C1F4A" stroke="transparent" stroke-width="1"></circle><circle cx="46" cy="36" r="3.2" fill="white" opacity="0.2"></circle><text x="50" y="44.5" text-anchor="middle" font-family="'Plus Jakarta Sans',sans-serif" font-size="13" font-weight="800" fill="#FAFCFF">Σ</text></svg>
